<svg data-v-423bf9ae="" xmlns="http://www.w3.org/2000/svg" viewBox="0 0 381 90" class="iconLeft"><!----><!----><!----><g data-v-423bf9ae="" id="bc6fc82d-21fb-487f-8952-3ff12a334aad" fill="white" transform="matrix(4.460966289706529,0,0,4.460966289706529,90.78013919659742,-0.6133801066242199)"><path d="M10.77 9.39L6.29 9.39L6.29 10.33L9.77 10.33C9.53 12.05 8.16 13.17 6.08 13.17C3.82 13.17 1.85 11.48 1.85 8.89C1.85 6.30 3.82 4.61 6.08 4.61C8.11 4.61 9.45 5.87 9.69 7.62L10.72 7.62C10.51 5.39 8.64 3.64 6.08 3.64C3.22 3.64 0.74 5.75 0.74 8.86C0.74 12.01 3.22 14.14 6.08 14.14C8.89 14.14 10.77 12.33 10.77 9.76ZM20.12 14L21.28 14L17.19 3.78L15.88 3.78L11.68 14L12.81 14L13.82 11.49L19.15 11.49ZM14.22 10.47L16.53 4.72L18.76 10.47ZM26.98 6.58C25.82 6.58 24.75 6.99 23.63 7.78L23.46 6.72L22.71 6.72L22.71 14L23.74 14L23.74 8.65C24.74 7.98 25.80 7.50 26.71 7.50C27.82 7.50 28.45 8.12 28.45 9.30L28.45 14L29.50 14L29.50 9.25C29.50 7.50 28.55 6.58 26.98 6.58ZM37.88 6.72L37.72 7.87C37.09 7.03 36.15 6.58 34.97 6.58C32.93 6.58 31.29 8.20 31.29 10.32C31.29 12.46 32.91 14.07 35 14.07C36.16 14.07 37.03 13.65 37.65 12.87L37.65 13.71C37.65 15.11 36.51 16.06 35.08 16.06C33.95 16.06 33.00 15.57 32.83 14.80L31.82 14.80C32.12 16.10 33.39 16.95 35.08 16.95C37.10 16.95 38.61 15.64 38.61 13.71L38.61 6.72ZM35.04 13.17C33.59 13.17 32.35 11.91 32.35 10.32C32.35 8.72 33.59 7.49 35.04 7.49C36.25 7.49 37.11 8.13 37.58 9.09L37.58 11.56C37.09 12.56 36.25 13.17 35.04 13.17ZM46.42 6.72L46.42 12.18C45.49 12.82 44.53 13.22 43.71 13.22C42.62 13.22 42.01 12.60 42.01 11.42L42.01 6.72L40.96 6.72L40.96 11.47C40.96 13.22 41.90 14.14 43.44 14.14C44.52 14.14 45.47 13.78 46.55 13.06L46.73 14L47.47 14L47.47 6.72ZM53.40 6.58C52.63 6.58 51.76 6.97 50.82 7.76L50.64 6.72L49.90 6.72L49.90 14L50.93 14L50.93 8.75C51.84 7.98 52.58 7.59 53.20 7.59C53.52 7.59 53.80 7.64 54.04 7.73L54.17 6.71C53.96 6.64 53.70 6.58 53.40 6.58ZM56.17 5.10C56.60 5.10 56.97 4.73 56.97 4.27C56.97 3.85 56.60 3.50 56.17 3.50C55.72 3.50 55.37 3.85 55.37 4.27C55.37 4.73 55.72 5.10 56.17 5.10ZM56.66 6.72L55.61 6.72L55.61 14L56.66 14ZM61.85 6.58C60.13 6.58 58.91 7.56 58.81 9.02L59.81 9.02C59.86 8.18 60.66 7.49 61.81 7.49C63.10 7.49 63.85 8.16 63.85 9.67L63.85 9.94L61.59 9.93C59.67 9.93 58.52 10.79 58.52 12.01C58.52 13.27 59.57 14.14 60.91 14.14C62.20 14.14 63.22 13.55 63.98 12.96L64.19 14L64.88 14L64.88 9.67C64.88 7.70 63.78 6.58 61.85 6.58ZM59.56 12.00C59.56 11.19 60.27 10.79 61.60 10.79L63.85 10.79L63.85 12.11C63.10 12.70 62.15 13.22 61.12 13.22C60.27 13.22 59.56 12.78 59.56 12.00Z"></path></g><!----><g data-v-423bf9ae="" id="f6b398a4-fb11-464b-b20d-bb065c7fff10" transform="matrix(2.8125,0,0,2.8125,-7.170000076293945,0)" stroke="none" fill="white"><path d="M2.83 18.247l26.34-9.124L2.83 0zM29.17 32V13.753L2.83 22.877z"></path></g><!----></svg>